#!OML:ASF I:\Actors\actors\Patient Classification 2\Patient 1\Session 1\actor1.ASF
:FULLY-SPECIFIED
:DEGREES
323
root 0.517212 18.421 4.7157 6.79064 8.87791 6.29578
lowerback 15.6251 1.05832 -3.12655
upperback 1.88767 0.987911 1.53942
thorax -6.83192 0.588832 3.20593
lowerneck -6.57253 -11.0583 -11.6429
upperneck 22.2289 -15.9975 10.3831
head 9.92175 -7.45372 3.64297
rclavicle -1.03368e-014 -1.59028e-015
rhumerus -40.9011 -0.608413 -77.7978
rradius 79.3089
rwrist -30.9951
rhand -14.9111 -74.4779
rfingers 7.12502
rthumb 11.2505 -255.844
lclavicle -1.03368e-014 -1.59028e-015
lhumerus -43.7443 -27.7768 106.865
lradius 83.7016
lwrist 36.2689
lhand -12.2272 -10.938
lfingers 7.12502
lthumb 13.8381 18.5817
rfemur -22.4159 -4.3876 3.29067
rtibia 30.0871
rfoot -17.6494 -7.35853
rtoes -3.5318
lfemur -8.95743 4.02823 -27.1476
ltibia 27.4954
lfoot -24.5729 8.95531
ltoes -51.1441
324
root 0.505068 18.4115 4.70779 6.50966 8.81391 6.2081
lowerback 15.4959 1.12659 -3.32848
upperback 1.87581 1.04394 1.49253
thorax -6.78051 0.620067 3.25937
lowerneck -6.82423 -10.9541 -11.8251
upperneck 22.9474 -15.9205 10.5456
head 10.2499 -7.3932 3.72704
rclavicle -2.82274e-014 9.54166e-015
rhumerus -39.924 -0.399897 -77.494
rradius 78.5513
rwrist -30.8007
rhand -15.1319 -74.1049
rfingers 7.12502
rthumb 11.0375 -256.205
lclavicle -2.82274e-014 9.54166e-015
lhumerus -43.763 -27.9347 106.811
lradius 83.4836
lwrist 36.1914
lhand -12.1903 -10.7241
lfingers 7.12502
lthumb 13.8736 18.7931
rfemur -22.3806 -5.18954 3.57575
rtibia 32.4235
rfoot -17.8822 -7.05589
rtoes -3.16695
lfemur -8.87889 4.00528 -27.0149
ltibia 27.8373
lfoot -24.6566 9.09475
ltoes -51.1608
325
root 0.486452 18.4047 4.70829 6.23841 8.77277 6.09191
lowerback 15.2851 1.21288 -3.43805
upperback 1.83555 1.13999 1.4144
thorax -6.71573 0.668028 3.21888
lowerneck -6.84692 -10.9277 -11.2622
upperneck 23.2976 -15.8573 9.96224
head 10.2676 -7.36544 3.44671
rclavicle -3.57812e-015 1.59028e-015
rhumerus -39.0509 -0.23754 -77.2225
rradius 77.8197
rwrist -30.7163
rhand -14.0544 -74.7478
rfingers 7.12502
rthumb 12.0767 -255.621
lclavicle -3.57812e-015 1.59028e-015
lhumerus -43.9334 -28.0503 106.802
lradius 83.2734
lwrist 36.0982
lhand -12.0839 -10.5769
lfingers 7.12502
lthumb 13.9762 18.9333
rfemur -22.1758 -5.86654 3.86802
rtibia 34.44
rfoot -18.2014 -6.91016
rtoes -2.53908
lfemur -8.74266 3.95885 -26.8217
ltibia 28.09
lfoot -24.7169 9.23818
ltoes -51.1837
326
root 0.462413 18.3983 4.71592 5.93822 8.78039 6.0301
lowerback 15.0941 1.28496 -3.54175
upperback 1.80584 1.21628 1.30672
thorax -6.64811 0.705654 3.14806
lowerneck -6.93937 -10.8605 -11.6682
upperneck 23.9652 -15.9224 10.5597
head 10.6315 -7.3541 3.70704
rclavicle -4.77083e-015 -3.97569e-015
rhumerus -38.161 0.00868153 -76.9344
rradius 77.1046
rwrist -30.9768
rhand -12.4079 -75.8879
rfingers 7.12502
rthumb 13.6639 -254.581
lclavicle -4.77083e-015 -3.97569e-015
lhumerus -44.1361 -28.1081 106.76
lradius 83.0827
lwrist 36.0342
lhand -12.1454 -10.5538
lfingers 7.12502
lthumb 13.9169 18.9605
rfemur -21.7381 -6.52058 4.07936
rtibia 36.0716
rfoot -18.5361 -6.92496
rtoes -2.47727
lfemur -8.47705 3.86303 -26.6517
ltibia 28.2371
lfoot -24.8163 9.28167
ltoes -51.2096
327
root 0.433771 18.3949 4.73018 5.66471 8.82385 6.03777
lowerback 14.9185 1.35678 -3.68739
upperback 1.74897 1.28656 1.21725
thorax -6.61877 0.742877 3.12204
lowerneck -7.00559 -10.8423 -11.7683
upperneck 24.4794 -15.969 10.6851
head 10.8632 -7.35807 3.75984
rclavicle 2.78299e-014 1.98785e-014
rhumerus -37.2428 0.351018 -76.5236
rradius 76.3028
rwrist -31.2117
rhand -12.2253 -76.221
rfingers 7.12502
rthumb 13.8399 -254.259
lclavicle 2.78299e-014 1.98785e-014
lhumerus -44.3458 -28.0258 106.772
lradius 82.8746
lwrist 35.9439
lhand -12.1868 -10.5269
lfingers 7.12502
lthumb 13.877 18.9902
rfemur -21.1371 -7.0922 4.17667
rtibia 37.2813
rfoot -18.7498 -6.96331
rtoes -2.88703
lfemur -8.14989 3.76081 -26.5294
ltibia 28.2781
lfoot -24.8834 9.302
ltoes -51.2356
328
root 0.397501 18.3948 4.74993 5.51066 8.87063 6.03902
lowerback 14.631 1.44648 -3.86999
upperback 1.65729 1.38259 1.17758
thorax -6.56915 0.794553 3.16629
lowerneck -6.99038 -10.9043 -12.2069
upperneck 24.8758 -16.1658 11.1508
head 11.1239 -7.43231 3.96834
rclavicle 1.74931e-014 -1.43125e-014
rhumerus -36.2899 0.637358 -75.988
rradius 75.3933
rwrist -31.1004
rhand -13.2169 -75.4658
rfingers 7.12502
rthumb 12.8841 -254.952
lclavicle 1.74931e-014 -1.43125e-014
lhumerus -44.5563 -27.8143 106.835
lradius 82.6799
lwrist 35.7878
lhand -11.9942 -10.38
lfingers 7.12502
lthumb 14.0626 19.1243
rfemur -20.5282 -7.48715 4.26926
rtibia 38.0415
rfoot -18.7835 -6.94614
rtoes -3.46921
lfemur -7.89626 3.6936 -26.3729
ltibia 28.2266
lfoot -24.84 9.33656
ltoes -51.2212
329
root 0.353843 18.3961 4.77488 5.45568 8.89283 6.00245
lowerback 14.5963 1.5904 -3.69389
upperback 1.29424 1.58146 0.9489
thorax -6.94422 0.895495 2.77916
lowerneck -6.7217 -10.8977 -11.9392
upperneck 25.5189 -16.232 10.899
head 11.2743 -7.45995 3.84659
rclavicle 1.68967e-014 1.51076e-014
rhumerus -35.8597 0.524737 -75.5545
rradius 74.5593
rwrist -30.7024
rhand -13.838 -75.0787
rfingers 7.12502
rthumb 12.2853 -255.302
lclavicle 1.68967e-014 1.51076e-014
lhumerus -45.3308 -27.869 106.985
lradius 82.5802
lwrist 35.7244
lhand -11.8431 -10.2564
lfingers 7.12502
lthumb 14.2082 19.2377
rfemur -19.9086 -7.65535 4.41466
rtibia 38.3213
rfoot -18.7371 -6.9056
rtoes -4.86614
lfemur -7.70477 3.56123 -26.1618
ltibia 28.1014
lfoot -24.7832 9.40541
ltoes -51.2256
330
root 0.306798 18.3994 4.80321 5.45625 8.85942 5.99167
lowerback 14.3009 1.719 -3.68677
upperback 1.08574 1.75229 0.824162
thorax -7.0124 0.980712 2.60974
lowerneck -6.64068 -10.8665 -11.5095
upperneck 25.8614 -16.1714 10.4282
head 11.2927 -7.43575 3.62664
rclavicle 7.7526e-015 -5.56597e-015
rhumerus -35.0579 0.677544 -75.0824
rradius 73.6871
rwrist -30.4751
rhand -13.6167 -74.8919
rfingers 7.12502
rthumb 12.4987 -255.502
lclavicle 7.7526e-015 -5.56597e-015
lhumerus -45.7209 -27.7776 107.054
lradius 82.4431
lwrist 35.7482
lhand -11.8561 -10.2064
lfingers 7.12502
lthumb 14.1957 19.2885
rfemur -19.2507 -7.50627 4.51373
rtibia 38.1144
rfoot -18.7758 -6.67592
rtoes -6.86628
lfemur -7.53671 3.39669 -25.9814
ltibia 27.9252
lfoot -24.7694 9.55177
ltoes -51.4081
331
root 0.253995 18.4045 4.83238 5.47865 8.81089 6.00415
lowerback 13.9335 1.83196 -3.76588
upperback 0.96572 1.89636 0.742303
thorax -6.94669 1.05281 2.54382
lowerneck -6.68319 -10.8175 -11.2042
upperneck 26.236 -16.091 10.0804
head 11.3706 -7.3957 3.46687
rclavicle 3.1408e-014 3.97569e-015
rhumerus -33.9795 1.01302 -74.6285
rradius 72.6936
rwrist -30.4019
rhand -13.8423 -75.1665
rfingers 7.12502
rthumb 12.2811 -255.214
lclavicle 3.1408e-014 3.97569e-015
lhumerus -45.8968 -27.5893 107.026
lradius 82.3065
lwrist 35.7424
lhand -11.8863 -10.0928
lfingers 7.12502
lthumb 14.1665 19.4041
rfemur -18.598 -7.07565 4.57373
rtibia 37.4883
rfoot -18.9983 -6.21644
rtoes -8.86923
lfemur -7.38175 3.27237 -25.8136
ltibia 27.7136
lfoot -24.7076 9.77294
ltoes -51.7212
332
root 0.19359 18.4108 4.86149 5.50341 8.78028 5.97986
lowerback 13.6653 1.93195 -3.766
upperback 0.833427 2.03055 0.640988
thorax -6.94473 1.11854 2.41334
lowerneck -6.77238 -10.7981 -11.0523
upperneck 26.633 -16.0969 9.97591
head 11.5176 -7.3816 3.40248
rclavicle -1.76918e-014 -1.59028e-015
rhumerus -32.9009 1.24959 -74.1846
rradius 71.6387
rwrist -29.9911
rhand -13.0518 -75.6078
rfingers 7.12502
rthumb 13.0432 -254.82
lclavicle -1.76918e-014 -1.59028e-015
lhumerus -46.1435 -27.3888 106.926
lradius 82.2419
lwrist 35.6652
lhand -11.8295 -10.0438
lfingers 7.12502
lthumb 14.2213 19.4494
rfemur -18.0095 -6.51745 4.69143
rtibia 36.5856
rfoot -19.4121 -5.86545
rtoes -10.0908
lfemur -7.234 3.03981 -25.5939
ltibia 27.4923
lfoot -24.6478 10.0736
ltoes -51.9855
333
root 0.12699 18.4175 4.89199 5.52493 8.73851 5.888
lowerback 13.4296 2.01739 -3.65819
upperback 0.720416 2.16243 0.559779
thorax -6.93599 1.17966 2.24405
lowerneck -6.88515 -10.7804 -11.1261
upperneck 26.9308 -16.1331 10.1389
head 11.6845 -7.37627 3.46397
rclavicle -3.47873e-014 -1.51076e-014
rhumerus -31.7644 1.42314 -73.7123
rradius 70.6723
rwrist -29.5327
rhand -12.7605 -75.8982
rfingers 7.12502
rthumb 13.3241 -254.548
lclavicle -3.47873e-014 -1.51076e-014
lhumerus -46.3503 -27.1274 106.795
lradius 82.1857
lwrist 35.5405
lhand -11.7837 -10.1038
lfingers 7.12502
lthumb 14.2654 19.3862
rfemur -17.4805 -5.97716 4.93233
rtibia 35.5586
rfoot -19.8736 -5.85774
rtoes -10.4522
lfemur -7.10503 2.77666 -25.2797
ltibia 27.3168
lfoot -24.6374 10.3467
ltoes -52.1159
334
root 0.0544275 18.4235 4.92577 5.57804 8.68424 5.70011
lowerback 13.1272 2.09364 -3.46426
upperback 0.634966 2.30096 0.524523
thorax -6.85804 1.24077 2.07688
lowerneck -6.96165 -10.7971 -11.6135
upperneck 27.3122 -16.2635 10.6422
head 11.9681 -7.41712 3.70443
rclavicle -2.20651e-014 -1.59028e-015
rhumerus -30.5275 1.6538 -73.2484
rradius 69.7586
rwrist -29.4685
rhand -13.7743 -75.7395
rfingers 7.12502
rthumb 12.3468 -254.645
lclavicle -2.20651e-014 -1.59028e-015
lhumerus -46.4571 -26.8251 106.638
lradius 82.0797
lwrist 35.3904
lhand -11.8291 -10.1158
lfingers 7.12502
lthumb 14.2217 19.3773
rfemur -16.9962 -5.56771 5.3591
rtibia 34.5166
rfoot -20.1999 -6.03705
rtoes -11.0273
lfemur -7.06411 2.58146 -24.8352
ltibia 27.2355
lfoot -24.6512 10.5886
ltoes -52.1492
335
root -0.0165298 18.4316 4.95929 5.58087 8.73334 5.24747
lowerback 12.8792 2.10388 -2.84839
upperback 0.562461 2.41355 0.526894
thorax -6.77733 1.27652 1.71646
lowerneck -7.0621 -10.6898 -10.8818
upperneck 27.3987 -16.0221 9.93456
head 11.845 -7.30517 3.36371
rclavicle 2.36554e-014 7.15625e-015
rhumerus -29.2833 1.86802 -72.8421
rradius 68.7763
rwrist -29.4354
rhand -14.6855 -75.1688
rfingers 7.12502
rthumb 11.4681 -255.165
lclavicle 2.36554e-014 7.15625e-015
lhumerus -46.6214 -26.6097 106.468
lradius 81.9349
lwrist 35.4214
lhand -11.9497 -10.689
lfingers 7.12502
lthumb 14.1055 18.8122
rfemur -16.4382 -5.39222 6.12542
rtibia 33.5309
rfoot -20.4103 -6.21512
rtoes -11.9514
lfemur -7.04754 2.34383 -24.0997
ltibia 27.2396
lfoot -24.6822 10.8959
ltoes -52.3934
336
root -0.0852632 18.4422 4.99019 5.50029 8.87671 4.60098
lowerback 12.7652 2.0444 -1.86801
upperback 0.49369 2.482 0.551703
thorax -6.74834 1.28004 1.17966
lowerneck -7.13352 -10.6393 -10.9371
upperneck 27.5864 -16.002 10.091
head 11.9523 -7.27757 3.43181
rclavicle 4.57205e-015 -6.36111e-015
rhumerus -28.0411 2.10221 -72.4719
rradius 67.7508
rwrist -29.3017
rhand -14.0195 -75.2279
rfingers 7.12502
rthumb 12.1103 -255.143
lclavicle 4.57205e-015 -6.36111e-015
lhumerus -46.8773 -26.4297 106.302
lradius 81.8225
lwrist 35.6664
lhand -12.1625 -11.6393
lfingers 7.12502
lthumb 13.9004 17.8761
rfemur -15.802 -5.32239 7.1227
rtibia 32.6107
rfoot -20.729 -6.32585
rtoes -12.1157
lfemur -6.99339 2.04073 -23.1539
ltibia 27.2853
lfoot -24.7215 11.2141
ltoes -52.7422
337
root -0.165931 18.451 5.02286 5.50463 9.01195 4.20012
lowerback 12.6174 2.01397 -1.27715
upperback 0.419949 2.53084 0.570494
thorax -6.72031 1.28609 0.861116
lowerneck -7.24189 -10.6028 -11.0412
upperneck 27.814 -15.9972 10.2514
head 12.0911 -7.25849 3.5055
rclavicle 5.46658e-014 6.36111e-015
rhumerus -26.7797 2.41658 -72.0474
rradius 66.7313
rwrist -29.2025
rhand -12.8937 -75.7263
rfingers 7.12502
rthumb 13.1957 -254.711
lclavicle 5.46658e-014 6.36111e-015
lhumerus -47.0963 -26.2088 106.179
lradius 81.834
lwrist 35.942
lhand -12.4357 -11.8015
lfingers 7.12502
lthumb 13.6371 17.7318
rfemur -15.2676 -5.20672 7.91235
rtibia 31.7077
rfoot -21.1977 -6.44313
rtoes -11.5435
lfemur -7.0017 1.70981 -22.4369
ltibia 27.3239
lfoot -24.7603 11.4161
ltoes -52.8455
